<svg width="14" height="16" viewBox="0 0 14 16" fill="#fff" xmlns="http://www.w3.org/2000/svg">
<path d="M6.67193 12.3077V11.8077H6.17193H3.26749C1.79785 11.8077 0.5 10.4341 0.5 8.61539V3.69231C0.5 1.87357 1.79785 0.5 3.26749 0.5H10.5286C11.9982 0.5 13.2961 1.87357 13.2961 3.69231V8.61539C13.2961 10.4341 11.9982 11.8077 10.5286 11.8077H7.62415H7.12415V12.3077V14.359V14.859H7.62415H9.80248C9.84373 14.859 9.89383 14.8767 9.94151 14.9306C9.99 14.9853 10.0286 15.0718 10.0286 15.1795C10.0286 15.2872 9.99 15.3737 9.94151 15.4284C9.89383 15.4823 9.84373 15.5 9.80248 15.5H3.9936C3.95235 15.5 3.90225 15.4823 3.85457 15.4284C3.80608 15.3737 3.76749 15.2872 3.76749 15.1795C3.76749 15.0718 3.80608 14.9853 3.85457 14.9306C3.90225 14.8767 3.95235 14.859 3.9936 14.859H6.17193H6.67193V14.359V12.3077Z" stroke="white"/>
</svg>
