<svg width="15" height="16" viewBox="0 0 15 16" fill="#fff" xmlns="http://www.w3.org/2000/svg">
<path d="M12.7432 7.7H13.2432V7.2V5.6V5.1H12.7432H11.3273H10.8273V5.6V7.2V7.7H11.3273H12.7432ZM2.83183 7.7H3.33183V7.2V5.6V5.1H2.83183H1.41591H0.915913V5.6V7.2V7.7H1.41591H2.83183ZM1.41591 8.3H0.915913V8.8V10.4V10.9H1.41591H2.83183H3.33183V10.4V8.8V8.3H2.83183H1.41591ZM11.3273 8.3H10.8273V8.8V10.4V10.9H11.3273H12.7432H13.2432V10.4V8.8V8.3H12.7432H11.3273ZM12.7432 4.5H13.2432V4C13.2432 2.77359 12.5425 1.69786 11.5142 1.2835L10.8273 1.00672V1.74727V4V4.5H11.3273H12.7432ZM3.33183 1.74727V1.00672L2.64495 1.2835C1.61663 1.69786 0.915913 2.77359 0.915913 4V4.5H1.41591H2.83183H3.33183V4V1.74727ZM1.41591 11.5H0.915913V12C0.915913 13.2264 1.61663 14.3021 2.64495 14.7165L3.33183 14.9933V14.2527V12V11.5H2.83183H1.41591ZM10.8273 14.2527V14.9933L11.5142 14.7165C12.5425 14.3021 13.2432 13.2264 13.2432 12V11.5H12.7432H11.3273H10.8273V12V14.2527ZM3.53978 0.5H10.6193C12.2394 0.5 13.6591 2.01135 13.6591 4V12C13.6591 13.9886 12.2394 15.5 10.6193 15.5H3.53978C1.91978 15.5 0.5 13.9886 0.5 12V4C0.5 2.01135 1.91978 0.5 3.53978 0.5Z" stroke="white"/>
</svg>
