<svg width="28" height="28" viewBox="0 0 28 28" fill="none" xmlns="http://www.w3.org/2000/svg">
<path d="M9.32868 10.2629C9.32868 7.36093 11.418 5 13.9861 5C16.5541 5 18.6434 7.36093 18.6434 10.2629C18.6434 13.1648 16.5541 15.5258 13.9861 15.5258C11.418 15.5258 9.32868 13.1648 9.32868 10.2629ZM17.8209 16.6531C17.3002 16.5037 16.7339 16.5879 16.2654 16.8826C14.8514 17.771 13.1207 17.771 11.7067 16.8826C11.2391 16.5889 10.6719 16.5058 10.1512 16.6531C8.29568 17.1826 7 19.0856 7 21.2803V22.3444C7 23.0159 7.15833 23.6727 7.4592 24.2453C7.70418 24.7105 8.16342 25 8.65617 25H19.315C19.8078 25 20.267 24.7116 20.5119 24.2442C20.8128 23.6727 20.9712 23.0159 20.9712 22.3444V21.2803C20.9721 19.0856 19.6764 17.1826 17.8209 16.6531Z" fill="white"/>
<circle cx="14" cy="14" r="12.5" stroke="white" stroke-width="3"/>
</svg>
