<svg width="22" height="20" viewBox="0 0 22 20" fill="none" xmlns="http://www.w3.org/2000/svg">
<path d="M0 1.25C0 0.55875 0.4928 0 1.1 0H15.4C16.0072 0 16.5 0.55875 16.5 1.25C16.5 1.94125 16.0072 2.5 15.4 2.5H1.1C0.4928 2.5 0 1.94125 0 1.25ZM20.9 8.75H1.1C0.4928 8.75 0 9.30875 0 10C0 10.6912 0.4928 11.25 1.1 11.25H20.9C21.5072 11.25 22 10.6912 22 10C22 9.30875 21.5072 8.75 20.9 8.75ZM11 17.5H1.1C0.4928 17.5 0 18.0588 0 18.75C0 19.4412 0.4928 20 1.1 20H11C11.6072 20 12.1 19.4412 12.1 18.75C12.1 18.0588 11.6072 17.5 11 17.5Z" fill="white"/>
</svg>
