<svg xmlns="http://www.w3.org/2000/svg" width="14" height="15" viewBox="0 0 14 15" fill="none">
  <path d="M12.0606 1.27628L12.0605 1.27631L12.0648 1.28108C12.5214 1.79037 12.7755 2.4742 12.7755 3.22111C12.7755 3.968 12.5214 4.65165 12.0648 5.16096L12.0627 5.16335L11.5918 5.69546L8.23527 1.90256L8.78737 1.27869L8.78737 1.27869L8.78948 1.27628C9.23857 0.762218 9.81682 0.5 10.425 0.5C11.0332 0.5 11.6115 0.762218 12.0606 1.27628ZM1.4237 9.59187L6.57526 3.77795L9.93219 7.57133L4.706 13.4844C4.51736 13.6976 4.28562 13.8284 4.04181 13.8776L0.738532 14.4997L0.730966 14.4999L0.706939 14.5C0.684528 14.5 0.634334 14.4871 0.585326 14.4318L0.216635 14.758L0.585325 14.4318C0.52592 14.3646 0.488127 14.2527 0.503345 14.1387L1.05453 10.4016C1.10409 10.0865 1.2339 9.80635 1.4237 9.59187Z" stroke="white"/>
</svg>