<svg width="25" height="25" viewBox="0 0 25 25" fill="none" xmlns="http://www.w3.org/2000/svg">
<path d="M7.38636 0C3.3125 0 0 3.3125 0 7.38636V17.6136C0 21.6875 3.3125 25 7.38636 25H17.6136C21.6875 25 25 21.6875 25 17.6136V7.38636C25 3.3125 21.6875 0 17.6136 0H7.38636ZM19.3182 4.54545C19.9432 4.54545 20.4545 5.05682 20.4545 5.68182C20.4545 6.30682 19.9432 6.81818 19.3182 6.81818C18.6932 6.81818 18.1818 6.30682 18.1818 5.68182C18.1818 5.05682 18.6932 4.54545 19.3182 4.54545ZM12.5 6.25C15.9489 6.25 18.75 9.05114 18.75 12.5C18.75 15.9489 15.9489 18.75 12.5 18.75C9.05114 18.75 6.25 15.9489 6.25 12.5C6.25 9.05114 9.05114 6.25 12.5 6.25ZM12.5 7.38636C9.68182 7.38636 7.38636 9.68182 7.38636 12.5C7.38636 15.3182 9.68182 17.6136 12.5 17.6136C15.3182 17.6136 17.6136 15.3182 17.6136 12.5C17.6136 9.68182 15.3182 7.38636 12.5 7.38636Z" fill="white"/>
</svg>
