<svg width="142" height="142" viewBox="0 0 142 142" fill="none" xmlns="http://www.w3.org/2000/svg">
<circle cx="71" cy="71" r="71" fill="#F6F6F6"/>
<path d="M36 24V118C36 119.657 37.3431 121 39 121H103.482C105.139 121 106.482 119.657 106.482 118V24C106.482 22.3431 105.139 21 103.482 21H39C37.3431 21 36 22.3431 36 24Z" stroke="black" stroke-width="6"/>
<path d="M59 94V111C59 112.657 60.3431 114 62 114H96C97.6569 114 99 112.657 99 111V94C99 92.3431 97.6569 91 96 91H62C60.3431 91 59 92.3431 59 94Z" stroke="black" stroke-width="3"/>
</svg>
