<svg width="25" height="25" viewBox="0 0 25 25" fill="none" xmlns="http://www.w3.org/2000/svg">
<g opacity="0.87">
<path d="M20.7479 20.4779L16.6713 16.4013C17.881 14.8677 18.4589 12.9299 18.287 10.9842C18.115 9.03851 17.2062 7.23206 15.7463 5.93439C14.2864 4.63673 12.3858 3.94593 10.4334 4.00331C8.48096 4.06069 6.62425 4.86192 5.24309 6.24309C3.86192 7.62425 3.06069 9.48096 3.00331 11.4334C2.94593 13.3858 3.63673 15.2864 4.93439 16.7463C6.23206 18.2062 8.03851 19.115 9.98419 19.287C11.9299 19.4589 13.8677 18.881 15.4013 17.6713L19.4779 21.7479C19.6473 21.9115 19.8742 22.002 20.1097 22C20.3452 21.9979 20.5704 21.9035 20.7369 21.7369C20.9035 21.5704 20.9979 21.3452 21 21.1097C21.002 20.8742 20.9115 20.6473 20.7479 20.4779ZM4.84468 11.6825C4.84468 10.5279 5.18706 9.39922 5.82853 8.43919C6.47001 7.47916 7.38175 6.73091 8.44848 6.28906C9.51521 5.84721 10.689 5.7316 11.8214 5.95685C12.9539 6.18211 13.9941 6.73811 14.8105 7.55455C15.627 8.37098 16.183 9.41119 16.4082 10.5436C16.6335 11.6761 16.5179 12.8499 16.076 13.9166C15.6341 14.9833 14.8859 15.8951 13.9259 16.5365C12.9658 17.178 11.8371 17.5204 10.6825 17.5204C9.13482 17.5185 7.65104 16.9028 6.55665 15.8084C5.46225 14.714 4.84658 13.2302 4.84468 11.6825Z" fill="white"/>
</g>
</svg>
