<svg width="25" height="25" viewBox="0 0 25 25" fill="none" xmlns="http://www.w3.org/2000/svg">
<path d="M22.7273 0H2.27273C1.01705 0 0 1.01705 0 2.27273V22.7273C0 23.983 1.01705 25 2.27273 25H22.7273C23.983 25 25 23.983 25 22.7273V2.27273C25 1.01705 23.9818 0 22.7273 0ZM21.2375 10.7659C21.0898 10.7795 20.9409 10.7886 20.7909 10.7886C19.092 10.7886 17.5989 9.91591 16.7295 8.59432C16.7295 12.0591 16.7295 16.0023 16.7295 16.0682C16.7295 19.1193 14.2557 21.592 11.2057 21.592C8.15568 21.5909 5.68182 19.117 5.68182 16.067C5.68182 13.0159 8.15568 10.5432 11.2057 10.5432C11.3216 10.5432 11.4341 10.5534 11.5466 10.5602V13.283C11.433 13.2693 11.3227 13.2489 11.2057 13.2489C9.64886 13.2489 8.38636 14.5114 8.38636 16.0682C8.38636 17.625 9.64773 18.8875 11.2057 18.8875C12.7636 18.8875 14.1386 17.6602 14.1386 16.1034C14.1386 16.0409 14.1659 3.41023 14.1659 3.41023H16.767C17.0114 5.73636 18.8898 7.57273 21.2375 7.74091V10.7659Z" fill="white"/>
</svg>
