<svg width="16" height="16" viewBox="0 0 16 16" fill="none" xmlns="http://www.w3.org/2000/svg">
<path opacity="0.89" d="M13.6908 7.85364L13.6908 7.85377L13.7023 7.85719C14.5629 8.11237 15.2324 9.03434 15.2324 10.1777V10.8088C15.2324 11.114 15.1678 11.4129 15.0453 11.6688L15.045 11.6695C14.958 11.8521 14.7971 11.9444 14.639 11.9444H14.5136C14.183 10.4385 13.2706 9.14139 12.0012 8.44142C12.0235 8.40863 12.0454 8.37571 12.0668 8.34269C12.4374 8.27961 12.7931 8.14037 13.1235 7.93671L13.1236 7.93678L13.1311 7.93194C13.3018 7.82248 13.5089 7.79488 13.6908 7.85364ZM2.60124 7.93194L2.6012 7.93201L2.60882 7.93671C2.93923 8.14037 3.29501 8.27961 3.66559 8.34269C3.68701 8.37571 3.70886 8.40863 3.73117 8.44142C2.46173 9.14139 1.5494 10.4385 1.21876 11.9444H1.08554C0.937568 11.9444 0.775434 11.8543 0.687351 11.6695L0.687028 11.6688C0.564617 11.4129 0.5 11.114 0.5 10.8088V10.1777C0.5 9.03434 1.16949 8.11237 2.03005 7.85719L2.03009 7.85733L2.04153 7.85364C2.22351 7.79488 2.43056 7.82248 2.60124 7.93194ZM9.74946 10.4342L9.7495 10.4343L9.75624 10.43C9.91306 10.3296 10.095 10.2778 10.2654 10.2778C10.3448 10.2778 10.4372 10.2927 10.5457 10.3211C11.6492 10.6591 12.4792 11.83 12.4792 13.2444V14.0178C12.4792 14.3986 12.3928 14.7772 12.2379 15.0982L12.2378 15.0982L12.2341 15.1062C12.114 15.3667 11.8912 15.5 11.6577 15.5H4.07468C3.84116 15.5 3.61836 15.3667 3.4983 15.1062L3.49837 15.1062L3.4945 15.0982C3.33958 14.7772 3.25316 14.3986 3.25316 14.0178V13.2444C3.25316 11.83 4.08318 10.6591 5.18665 10.3211C5.29517 10.2927 5.38761 10.2778 5.46701 10.2778C5.63733 10.2778 5.8193 10.3296 5.97612 10.43L5.97609 10.43L5.9829 10.4342C6.56224 10.7922 7.21128 10.98 7.86618 10.98C8.52109 10.98 9.17013 10.7922 9.74946 10.4342ZM13.9344 3.29774C13.9344 4.17326 13.5867 4.93568 13.0627 5.43861C13.0781 5.25681 13.0859 5.07326 13.0859 4.88889C13.0859 3.15631 12.4051 1.58323 11.3125 0.510716C11.3822 0.503631 11.4526 0.5 11.524 0.5C12.796 0.5 13.9344 1.69155 13.9344 3.29774ZM4.20839 0.5C4.27972 0.5 4.35022 0.503627 4.41986 0.510713C3.32727 1.58322 2.64647 3.15631 2.64647 4.88889C2.64647 5.07326 2.65429 5.25681 2.66968 5.43861C2.14571 4.93568 1.79794 4.17326 1.79794 3.29774C1.79794 1.69155 2.93634 0.5 4.20839 0.5ZM7.86618 1.38889C9.4891 1.38889 10.906 2.89695 10.906 4.88889C10.906 6.88083 9.4891 8.38889 7.86618 8.38889C6.24327 8.38889 4.8264 6.88083 4.8264 4.88889C4.8264 2.89695 6.24327 1.38889 7.86618 1.38889Z" stroke="white"/>
</svg>
